<svg width="344.629" height="94.385" viewBox="0 0 344.629 94.385" xmlns="http://www.w3.org/2000/svg">
  <g id="svgGroup" stroke-linecap="round" fill-rule="nonzero" font-size="9pt" stroke="#000" stroke-width="0.25mm" fill="#000" style="stroke:#000;stroke-width:0.25mm;fill:#000">
    <path d="M 49.921 93.063 A 36.49 36.49 0 0 1 49.365 93.213 A 47.12 47.12 0 0 1 47.722 93.611 A 41.834 41.834 0 0 1 47.192 93.726 A 92.087 92.087 0 0 1 46.173 93.933 A 75.975 75.975 0 0 1 45.215 94.116 A 152.636 152.636 0 0 1 44.772 94.197 Q 44.229 94.295 43.829 94.363 A 48.141 48.141 0 0 1 43.701 94.385 A 373.017 373.017 0 0 1 38.257 79.419 A 361.493 361.493 0 0 1 33.447 64.16 Q 27.148 70.166 20.093 75.928 A 241.5 241.5 0 0 1 8.864 84.543 A 277.515 277.515 0 0 1 4.834 87.402 Q 4.423 86.991 3.926 86.422 A 32.506 32.506 0 0 1 3.613 86.06 L 2.246 84.448 A 244.965 244.965 0 0 1 1.581 83.661 A 209.986 209.986 0 0 1 0.952 82.91 A 121.866 121.866 0 0 0 0.664 82.565 Q 0.256 82.08 0 81.787 A 172.962 172.962 0 0 0 15.617 69.51 A 158.952 158.952 0 0 0 16.577 68.652 A 198.216 198.216 0 0 0 30.811 54.492 A 357.033 357.033 0 0 1 26.001 34.229 Q 23.926 24.17 22.51 14.209 Q 23.438 14.673 24.829 15.379 A 765.074 765.074 0 0 1 24.976 15.454 Q 26.465 16.211 28.125 17.114 A 622.745 622.745 0 0 0 31.47 18.921 Q 33.154 19.824 34.546 20.605 A 630.643 630.643 0 0 0 35.213 20.979 Q 36.139 21.498 36.82 21.874 A 220.546 220.546 0 0 0 36.865 21.899 A 197.715 197.715 0 0 0 37.187 22.077 Q 37.83 22.43 37.988 22.51 A 263.94 263.94 0 0 0 40.039 43.457 A 180.418 180.418 0 0 0 49.518 29.902 A 146.612 146.612 0 0 0 54.834 20.776 A 163.256 163.256 0 0 0 59.818 10.654 Q 62.302 5.11 64.014 0 A 43.318 43.318 0 0 1 64.554 0.63 Q 65.349 1.575 66.359 2.866 A 124.905 124.905 0 0 1 66.504 3.052 Q 67.969 4.932 69.434 6.934 A 134.087 134.087 0 0 1 71.169 9.36 A 110.378 110.378 0 0 1 72.119 10.742 A 69.139 69.139 0 0 1 72.69 11.6 Q 73.486 12.817 73.926 13.623 Q 67.09 24.512 59.302 35.01 A 228.229 228.229 0 0 1 43.176 54.35 A 250.594 250.594 0 0 1 41.992 55.615 A 283.728 283.728 0 0 0 46.021 73.804 A 291.325 291.325 0 0 0 49.98 87.761 A 332.839 332.839 0 0 0 51.514 92.578 A 32.794 32.794 0 0 1 49.921 93.063 Z" id="0" />
    <path d="M 64.35 81.728 Q 63.778 81.613 63.037 81.274 Q 61.914 80.762 60.889 80.005 A 9.336 9.336 0 0 1 59.44 78.69 A 8.434 8.434 0 0 1 59.131 78.32 A 4.155 4.155 0 0 1 58.714 77.688 Q 58.398 77.09 58.398 76.514 A 61.537 61.537 0 0 1 58.891 74.512 Q 59.16 73.489 59.49 72.352 A 109.631 109.631 0 0 1 59.717 71.582 Q 60.547 68.799 61.499 65.918 A 134.784 134.784 0 0 1 63.501 60.278 A 435.953 435.953 0 0 1 64.382 57.981 Q 64.789 56.93 65.161 55.987 A 256.987 256.987 0 0 1 65.405 55.371 A 90.404 90.404 0 0 1 65.819 54.349 Q 66.418 52.893 66.895 51.904 Q 67.434 50.784 67.656 50.616 A 0.12 0.12 0 0 1 67.725 50.586 A 0.619 0.619 0 0 1 67.88 50.612 Q 68.256 50.715 69.189 51.221 A 23.118 23.118 0 0 1 70.546 52.02 A 29.771 29.771 0 0 1 71.655 52.759 A 19.097 19.097 0 0 1 73.377 54.108 A 16.557 16.557 0 0 1 73.975 54.663 A 6.135 6.135 0 0 1 74.417 55.139 Q 75 55.844 75 56.396 Q 75 56.543 74.951 56.763 A 5.888 5.888 0 0 1 74.924 56.88 Q 74.878 57.068 74.805 57.324 Q 74.536 58.163 74.164 59.21 A 100.375 100.375 0 0 1 73.804 60.205 A 256.539 256.539 0 0 1 72.847 62.764 A 287.336 287.336 0 0 1 72.51 63.647 L 71.143 67.212 A 113.171 113.171 0 0 0 70.496 68.939 A 91.154 91.154 0 0 0 69.922 70.557 Q 69.553 71.631 69.276 72.52 A 44.77 44.77 0 0 0 69.043 73.291 A 15.811 15.811 0 0 0 68.893 73.837 Q 68.701 74.597 68.701 75 A 0.422 0.422 0 0 0 68.716 75.116 Q 68.753 75.246 68.886 75.28 A 0.432 0.432 0 0 0 68.994 75.293 Q 69.403 75.293 70.124 74.925 A 9.017 9.017 0 0 0 70.605 74.658 A 21.872 21.872 0 0 0 71.456 74.127 Q 71.922 73.822 72.436 73.457 A 42.805 42.805 0 0 0 73.071 72.998 A 78.954 78.954 0 0 0 74.858 71.64 A 94.112 94.112 0 0 0 75.977 70.752 A 121.062 121.062 0 0 0 78.707 68.485 A 110.867 110.867 0 0 0 78.882 68.335 A 689.302 689.302 0 0 0 80.206 67.194 A 503.835 503.835 0 0 0 81.396 66.162 A 228.709 228.709 0 0 1 81.924 65.704 Q 82.434 65.264 82.801 64.953 A 50.977 50.977 0 0 1 83.105 64.697 Q 83.545 65.137 84.155 65.82 A 145.838 145.838 0 0 0 84.747 66.479 A 117.818 117.818 0 0 0 85.303 67.09 A 114.41 114.41 0 0 1 84.422 67.961 Q 83.624 68.741 82.617 69.702 A 83.773 83.773 0 0 1 80.275 71.852 A 98.07 98.07 0 0 1 79.126 72.852 A 137.542 137.542 0 0 1 75.22 76.074 A 62.498 62.498 0 0 1 72.734 77.955 A 51.912 51.912 0 0 1 71.289 78.955 A 33.177 33.177 0 0 1 69.502 80.07 Q 68.638 80.57 67.832 80.955 A 20.141 20.141 0 0 1 67.725 81.006 A 11.024 11.024 0 0 1 66.735 81.418 Q 66.225 81.6 65.77 81.692 A 4.421 4.421 0 0 1 64.893 81.787 A 2.764 2.764 0 0 1 64.35 81.728 Z M 84.201 35.786 Q 84.127 36.011 83.902 36.551 A 41.055 41.055 0 0 1 83.862 36.646 Q 83.644 37.166 83.368 37.802 A 155.596 155.596 0 0 1 83.105 38.403 A 37.044 37.044 0 0 1 82.508 39.693 A 44.374 44.374 0 0 1 82.104 40.503 A 49.113 49.113 0 0 1 81.549 41.559 A 39.78 39.78 0 0 1 81.006 42.529 Q 80.595 43.24 80.212 43.764 A 8.63 8.63 0 0 1 79.98 44.067 Q 79.492 44.678 79.199 44.678 A 4.739 4.739 0 0 1 78.496 44.581 Q 78.137 44.506 77.733 44.376 A 11.091 11.091 0 0 1 77.075 44.141 A 22.866 22.866 0 0 1 74.683 43.042 Q 73.535 42.432 72.729 41.846 A 7.813 7.813 0 0 1 72.456 41.638 Q 71.924 41.214 71.924 41.016 A 4.795 4.795 0 0 1 71.987 40.277 Q 72.107 39.512 72.456 38.508 A 16.915 16.915 0 0 1 72.51 38.354 A 27.416 27.416 0 0 1 73.877 35.181 A 24.327 24.327 0 0 1 74.64 33.788 Q 75.048 33.099 75.464 32.52 A 8.427 8.427 0 0 1 75.753 32.138 Q 76.223 31.556 76.544 31.431 A 0.455 0.455 0 0 1 76.709 31.396 Q 77.588 31.396 78.857 31.958 A 20.94 20.94 0 0 1 81.323 33.252 A 21.359 21.359 0 0 1 82.37 33.933 Q 82.851 34.268 83.259 34.598 A 12.671 12.671 0 0 1 83.374 34.692 A 8.55 8.55 0 0 1 83.664 34.943 Q 84.087 35.327 84.193 35.557 A 0.333 0.333 0 0 1 84.229 35.693 A 1.367 1.367 0 0 1 84.201 35.786 Z" id="1" />
    <path d="M 107.715 53.027 L 107.617 53.125 A 33.695 33.695 0 0 0 103.467 55.737 Q 101.514 57.178 100 58.447 A 79.271 79.271 0 0 0 97.55 60.644 A 68.533 68.533 0 0 0 96.729 61.426 Q 93.425 64.684 92.009 67.124 A 12.153 12.153 0 0 0 91.797 67.505 A 25.08 25.08 0 0 0 91.231 68.627 Q 90.43 70.332 90.43 71.191 A 1.472 1.472 0 0 0 90.459 71.5 Q 90.556 71.949 90.972 72.012 A 0.959 0.959 0 0 0 91.113 72.021 A 2.209 2.209 0 0 0 91.614 71.958 Q 92.15 71.833 92.847 71.46 Q 93.896 70.898 95.215 69.946 A 52.575 52.575 0 0 0 96.51 68.979 Q 97.181 68.461 97.911 67.871 A 86.309 86.309 0 0 0 98.12 67.7 A 526.734 526.734 0 0 0 100.569 65.691 A 593.757 593.757 0 0 0 101.416 64.99 A 36.925 36.925 0 0 0 104.346 62.354 A 36.585 36.585 0 0 0 105.591 61.096 A 47.264 47.264 0 0 0 106.885 59.668 Q 108.203 58.154 109.131 56.592 Q 109.131 56.543 109.18 56.494 Q 109.221 56.452 109.299 56.482 A 0.304 0.304 0 0 1 109.326 56.494 A 3.585 3.585 0 0 1 109.676 56.788 Q 110.021 57.114 110.416 57.618 A 12.498 12.498 0 0 1 110.547 57.788 A 15.496 15.496 0 0 1 111.593 59.369 A 17.455 17.455 0 0 1 111.816 59.766 A 23.27 23.27 0 0 1 112.482 61.08 A 19.384 19.384 0 0 1 112.817 61.841 Q 113.232 62.842 113.232 63.379 A 40.116 40.116 0 0 0 112.348 65.308 Q 111.937 66.273 111.633 67.153 A 22.713 22.713 0 0 0 111.499 67.554 A 49.384 49.384 0 0 0 111.082 68.898 Q 110.887 69.565 110.736 70.16 A 25.815 25.815 0 0 0 110.571 70.85 Q 110.331 71.92 110.231 72.753 A 11.022 11.022 0 0 0 110.181 73.267 A 42.887 42.887 0 0 0 110.149 73.738 Q 110.117 74.246 110.11 74.602 A 9.801 9.801 0 0 0 110.107 74.805 A 0.422 0.422 0 0 0 110.122 74.921 Q 110.159 75.051 110.292 75.085 A 0.432 0.432 0 0 0 110.4 75.098 A 0.999 0.999 0 0 0 110.657 75.058 Q 111.054 74.95 111.72 74.552 A 11.651 11.651 0 0 0 111.865 74.463 A 25.873 25.873 0 0 0 112.675 73.939 Q 113.385 73.462 114.209 72.852 A 64.673 64.673 0 0 0 115.57 71.814 A 82.216 82.216 0 0 0 117.017 70.654 A 171.623 171.623 0 0 0 119.529 68.555 A 154.987 154.987 0 0 0 119.873 68.262 A 212.544 212.544 0 0 0 121.173 67.139 A 156.859 156.859 0 0 0 122.339 66.113 A 297.232 297.232 0 0 0 122.856 65.652 Q 123.584 65.002 124.023 64.6 A 18.404 18.404 0 0 1 124.257 64.838 Q 124.576 65.168 124.985 65.62 A 56.021 56.021 0 0 1 125.122 65.771 A 230.472 230.472 0 0 0 125.75 66.466 Q 126.049 66.796 126.318 67.09 Q 125.513 67.828 124.488 68.786 A 434.171 434.171 0 0 0 123.511 69.702 A 140.316 140.316 0 0 1 121.814 71.271 A 165.635 165.635 0 0 1 119.995 72.9 A 132.826 132.826 0 0 1 116.113 76.196 Q 114.111 77.832 112.207 79.102 A 32.819 32.819 0 0 1 110.352 80.255 A 24.606 24.606 0 0 1 108.594 81.177 Q 106.885 81.982 105.615 81.982 A 5.285 5.285 0 0 1 104.694 81.897 Q 104.272 81.822 103.817 81.682 A 8.756 8.756 0 0 1 103.687 81.641 Q 102.637 81.299 101.758 80.688 Q 100.879 80.078 100.293 79.248 A 3.143 3.143 0 0 1 99.707 77.393 A 15.816 15.816 0 0 0 99.704 77.076 Q 99.698 76.791 99.683 76.44 Q 99.664 76.019 99.715 75.406 A 16.797 16.797 0 0 1 99.756 74.976 Q 99.823 74.355 99.982 73.549 A 28.95 28.95 0 0 1 100.146 72.778 A 30.116 30.116 0 0 1 100.395 71.769 Q 100.65 70.8 101.025 69.58 A 41.784 41.784 0 0 1 99.274 71.326 A 56.058 56.058 0 0 1 97.241 73.145 A 57.517 57.517 0 0 1 92.676 76.66 A 56.999 56.999 0 0 1 87.866 79.663 A 32.88 32.88 0 0 1 85.821 80.712 Q 84.79 81.194 83.835 81.538 A 19.103 19.103 0 0 1 83.398 81.689 A 2.059 2.059 0 0 1 83.269 81.737 Q 83.139 81.779 83.044 81.786 A 0.495 0.495 0 0 1 83.008 81.787 L 82.715 81.787 A 1.346 1.346 0 0 1 82.379 81.74 Q 81.975 81.635 81.421 81.299 A 7.164 7.164 0 0 1 80.522 80.649 A 9.348 9.348 0 0 1 79.834 80.005 A 8.431 8.431 0 0 1 78.491 78.174 A 4.725 4.725 0 0 1 78.061 77.116 A 3.86 3.86 0 0 1 77.93 76.123 A 1.711 1.711 0 0 1 77.94 75.965 Q 77.977 75.599 78.143 74.625 A 92.503 92.503 0 0 1 78.223 74.17 Q 78.502 72.586 79.516 70.178 A 39.314 39.314 0 0 1 79.614 69.946 A 26.93 26.93 0 0 1 80.68 67.759 Q 81.586 66.084 82.861 64.185 A 29.403 29.403 0 0 1 85.04 61.353 Q 86.235 59.973 87.708 58.561 A 51.544 51.544 0 0 1 88.721 57.617 A 40.698 40.698 0 0 1 92.822 54.395 A 44.827 44.827 0 0 1 94.812 53.113 A 60.032 60.032 0 0 1 97.07 51.807 A 25.258 25.258 0 0 1 102.1 49.707 Q 102.197 49.707 102.271 49.658 Q 102.336 49.614 102.461 49.689 A 0.673 0.673 0 0 1 102.49 49.707 Q 103.076 49.902 103.882 50.317 Q 104.688 50.732 105.493 51.196 A 15.436 15.436 0 0 1 106.25 51.66 A 11.557 11.557 0 0 1 106.909 52.124 Q 107.379 52.481 107.603 52.737 A 1.406 1.406 0 0 1 107.715 52.881 A 0.301 0.301 0 0 1 107.728 52.91 Q 107.756 52.986 107.715 53.027 Z" id="2" />
    <path d="M 144.141 54.785 L 144.434 54.492 A 67.914 67.914 0 0 1 144.698 54.811 Q 144.99 55.167 145.367 55.633 A 219.471 219.471 0 0 1 145.728 56.079 A 112.738 112.738 0 0 1 147.339 58.13 A 59.331 59.331 0 0 1 148.096 59.137 A 43.168 43.168 0 0 1 148.755 60.059 A 24.474 24.474 0 0 1 149 60.417 Q 149.397 61.012 149.512 61.279 A 12.232 12.232 0 0 1 148.847 65.216 A 13.844 13.844 0 0 1 148.755 65.479 A 21.765 21.765 0 0 1 147.113 68.987 A 24.659 24.659 0 0 1 146.729 69.629 A 13.769 13.769 0 0 0 152.173 68.14 Q 154.128 67.134 156.215 65.14 A 30.015 30.015 0 0 0 157.422 63.916 A 28.407 28.407 0 0 1 157.658 64.156 Q 157.92 64.423 158.252 64.775 A 89.75 89.75 0 0 1 158.569 65.112 A 41.097 41.097 0 0 1 158.907 65.477 Q 159.387 66.003 159.717 66.406 A 33.608 33.608 0 0 1 157.684 68.372 A 24.88 24.88 0 0 1 155.688 69.971 A 21.859 21.859 0 0 1 153.217 71.512 A 18.126 18.126 0 0 1 151.733 72.217 A 19.023 19.023 0 0 1 147.705 73.413 A 23.843 23.843 0 0 1 143.506 73.779 Q 141.846 75.537 139.941 77.002 A 29.709 29.709 0 0 1 136.553 79.266 A 27.06 27.06 0 0 1 136.06 79.541 A 21.706 21.706 0 0 1 133.352 80.787 A 18.779 18.779 0 0 1 132.129 81.201 A 14.287 14.287 0 0 1 129.993 81.675 A 11.432 11.432 0 0 1 128.418 81.787 A 5.44 5.44 0 0 1 126.668 81.485 A 7.541 7.541 0 0 1 125.391 80.908 Q 123.828 80.029 122.559 78.735 A 13.594 13.594 0 0 1 120.793 76.531 A 12.307 12.307 0 0 1 120.459 75.977 Q 119.891 74.974 119.712 74.132 A 3.57 3.57 0 0 1 119.629 73.389 Q 119.629 69.678 120.63 66.016 Q 121.631 62.354 123.755 59.155 A 22.272 22.272 0 0 1 128.567 53.98 A 25.348 25.348 0 0 1 129.175 53.516 A 22.122 22.122 0 0 1 134.037 50.816 A 27.676 27.676 0 0 1 137.012 49.805 A 0.552 0.552 0 0 1 137.111 49.754 Q 137.22 49.71 137.389 49.679 A 2.963 2.963 0 0 1 137.524 49.658 Q 137.77 49.625 137.961 49.615 A 3.093 3.093 0 0 1 138.135 49.609 Q 138.818 49.609 139.575 50.122 A 10.644 10.644 0 0 1 140.991 51.27 A 10.745 10.745 0 0 1 141.595 51.898 A 7.998 7.998 0 0 1 142.09 52.515 A 7.863 7.863 0 0 1 142.239 52.729 Q 142.461 53.06 142.513 53.23 A 0.316 0.316 0 0 1 142.529 53.32 A 0.487 0.487 0 0 1 142.447 53.45 Q 142.273 53.656 141.797 53.931 A 6.758 6.758 0 0 0 141.405 54.177 Q 140.86 54.544 140.088 55.176 A 15.029 15.029 0 0 0 139.303 55.869 Q 138.907 56.243 138.468 56.698 A 37.232 37.232 0 0 0 137.549 57.69 A 25.464 25.464 0 0 0 136.409 59.065 Q 135.825 59.818 135.2 60.716 A 55.077 55.077 0 0 0 134.326 62.012 A 37.304 37.304 0 0 0 132.597 64.857 Q 131.823 66.278 131.305 67.586 A 17.676 17.676 0 0 0 130.762 69.165 Q 129.977 71.869 129.856 73.544 A 8.02 8.02 0 0 0 129.834 74.121 A 2.943 2.943 0 0 0 129.877 74.647 Q 130.048 75.586 130.908 75.586 A 1.997 1.997 0 0 0 131.629 75.433 Q 132.575 75.064 133.887 73.804 A 27.406 27.406 0 0 0 135.538 72.062 Q 136.348 71.134 137.184 70.037 A 49.001 49.001 0 0 0 137.744 69.287 Q 137.66 68.826 137.63 68.454 A 5.585 5.585 0 0 1 137.622 68.335 A 15.006 15.006 0 0 1 137.604 67.938 A 11.19 11.19 0 0 1 137.598 67.578 A 10.838 10.838 0 0 1 137.634 66.724 Q 137.687 66.056 137.817 65.259 A 7.746 7.746 0 0 1 138.105 64.107 Q 138.286 63.554 138.557 62.95 A 15.799 15.799 0 0 1 138.916 62.207 Q 139.502 60.889 140.332 59.619 A 25.293 25.293 0 0 1 141.089 58.453 A 34.623 34.623 0 0 1 141.992 57.202 A 20.181 20.181 0 0 1 144.141 54.785 Z" id="3" />
    <path d="M 206.25 43.994 L 197.412 35.498 A 20.925 20.925 0 0 0 198.871 34.479 Q 199.57 33.948 200.303 33.313 A 34.231 34.231 0 0 0 200.513 33.13 A 36.233 36.233 0 0 0 202.557 31.177 A 43.332 43.332 0 0 0 203.784 29.858 A 45.737 45.737 0 0 0 206.744 26.168 A 50.195 50.195 0 0 0 206.934 25.903 A 38.138 38.138 0 0 0 209.45 21.878 A 35.011 35.011 0 0 0 209.595 21.606 A 26.613 26.613 0 0 0 211.153 18.076 A 23.871 23.871 0 0 0 211.426 17.261 A 15.075 15.075 0 0 0 211.997 14.741 A 12.445 12.445 0 0 0 212.109 13.086 A 15.57 15.57 0 0 0 212.086 12.197 Q 212.033 11.282 211.865 10.645 A 5.59 5.59 0 0 0 211.677 10.056 Q 211.565 9.766 211.43 9.533 A 2.561 2.561 0 0 0 211.206 9.204 Q 210.791 8.691 210.254 8.496 A 3.261 3.261 0 0 0 209.131 8.301 Q 206.787 8.301 203.809 10.278 A 30.821 30.821 0 0 0 201.142 12.28 Q 199.827 13.375 198.455 14.723 A 55.795 55.795 0 0 0 197.534 15.649 A 74.499 74.499 0 0 0 194.202 19.33 A 98.503 98.503 0 0 0 190.796 23.584 A 124.087 124.087 0 0 0 184.991 31.956 A 138.169 138.169 0 0 0 184.131 33.325 A 159.832 159.832 0 0 0 178.052 44.043 A 120.54 120.54 0 0 0 173.753 53.25 A 108.145 108.145 0 0 0 173.071 54.932 A 91.214 91.214 0 0 0 170.76 61.464 A 74.826 74.826 0 0 0 169.702 65.21 A 45.128 45.128 0 0 0 168.851 69.312 Q 168.531 71.355 168.471 73.188 A 25.528 25.528 0 0 0 168.457 74.023 Q 168.457 75.488 168.677 76.44 Q 168.844 77.167 169.126 77.666 A 2.785 2.785 0 0 0 169.312 77.954 A 2.09 2.09 0 0 0 169.933 78.523 A 2.002 2.002 0 0 0 170.361 78.711 Q 170.996 78.906 171.826 78.906 A 4.229 4.229 0 0 0 172.959 78.738 Q 173.949 78.462 175.133 77.733 A 13.658 13.658 0 0 0 175.171 77.71 A 26.011 26.011 0 0 0 177.033 76.433 Q 177.982 75.723 178.985 74.859 A 43.942 43.942 0 0 0 179.272 74.609 A 62.846 62.846 0 0 0 182.283 71.783 A 74.239 74.239 0 0 0 183.667 70.361 A 132.738 132.738 0 0 0 186.848 66.887 A 118.486 118.486 0 0 0 187.842 65.747 A 214.676 214.676 0 0 0 189.697 63.562 A 162.05 162.05 0 0 0 191.357 61.548 A 167.855 167.855 0 0 0 192.093 60.634 Q 193.127 59.338 193.75 58.496 Q 193.75 58.545 194.946 59.521 Q 195.769 60.193 196.787 61.049 A 267.476 267.476 0 0 1 197.754 61.865 A 485.174 485.174 0 0 1 200.977 64.624 Q 202.588 66.016 203.418 66.895 A 623.637 623.637 0 0 0 202.792 67.599 Q 201.861 68.651 200.618 70.061 A 1870.015 1870.015 0 0 0 200.439 70.264 A 83.614 83.614 0 0 1 198.517 72.369 A 106.46 106.46 0 0 1 196.362 74.585 A 108.292 108.292 0 0 1 192.778 78.004 A 121.039 121.039 0 0 1 191.504 79.15 A 49.737 49.737 0 0 1 186.182 83.276 A 32.601 32.601 0 0 1 182.053 85.638 A 28.65 28.65 0 0 1 180.664 86.255 Q 177.881 87.402 175.244 87.402 Q 173.47 87.402 171.483 86.406 A 12.813 12.813 0 0 1 171.191 86.255 A 21.274 21.274 0 0 1 168.525 84.554 A 26.126 26.126 0 0 1 166.943 83.276 Q 164.844 81.445 163.037 79.224 A 32.92 32.92 0 0 1 161.008 76.456 A 27.083 27.083 0 0 1 160.01 74.805 Q 158.81 72.565 158.429 70.62 A 9.779 9.779 0 0 1 158.301 69.775 Q 158.057 67.48 158.057 66.113 Q 158.057 62.882 158.85 58.93 A 53.854 53.854 0 0 1 159.131 57.617 A 65.391 65.391 0 0 1 160.836 51.535 A 79.448 79.448 0 0 1 162.207 47.729 A 94.446 94.446 0 0 1 165.677 39.906 A 107.733 107.733 0 0 1 167.041 37.256 A 104.164 104.164 0 0 1 173.315 26.953 A 87.363 87.363 0 0 1 180.786 17.578 Q 184.814 13.184 189.233 9.912 A 41.93 41.93 0 0 1 196.027 5.788 A 37.479 37.479 0 0 1 198.364 4.761 A 25.566 25.566 0 0 1 207.91 2.881 A 5.969 5.969 0 0 1 209.495 3.105 A 8.182 8.182 0 0 1 210.791 3.589 A 14.785 14.785 0 0 1 212.942 4.834 A 17.485 17.485 0 0 1 213.77 5.444 A 21.883 21.883 0 0 1 215.912 7.372 A 25.207 25.207 0 0 1 216.602 8.105 A 24.878 24.878 0 0 1 218.598 10.614 A 22.26 22.26 0 0 1 218.994 11.206 A 18.198 18.198 0 0 1 220.208 13.388 A 15.579 15.579 0 0 1 220.63 14.38 A 10.265 10.265 0 0 1 221.036 15.671 Q 221.24 16.523 221.24 17.285 Q 221.24 20.029 220.212 23.308 A 29.482 29.482 0 0 1 220.068 23.755 A 39.809 39.809 0 0 1 217.844 29.092 A 46.27 46.27 0 0 1 216.895 30.884 A 49.138 49.138 0 0 1 212.812 37.033 A 54.622 54.622 0 0 1 212.134 37.891 A 47.188 47.188 0 0 1 207.026 43.311 A 43.157 43.157 0 0 1 206.25 43.994 Z" id="4" />
    <path d="M 284.997 25.918 A 37.483 37.483 0 0 1 284.058 29.224 A 35.992 35.992 0 0 1 280.487 36.771 A 43.163 43.163 0 0 1 278.54 39.648 A 46.11 46.11 0 0 1 273.373 45.507 A 58.991 58.991 0 0 1 268.994 49.316 A 53.889 53.889 0 0 1 261.747 54.109 A 69.526 69.526 0 0 1 255.127 57.324 A 180.325 180.325 0 0 0 258.199 64.328 A 162.432 162.432 0 0 0 259.253 66.553 A 239.743 239.743 0 0 0 262.15 72.353 A 205.111 205.111 0 0 0 263.452 74.829 A 335.192 335.192 0 0 0 265.479 78.564 A 268.327 268.327 0 0 0 267.407 82.007 Q 269.287 85.303 270.801 87.891 A 305.031 305.031 0 0 1 269.743 88.241 Q 268.805 88.55 267.676 88.916 Q 265.869 89.502 263.965 90.112 Q 262.061 90.723 260.229 91.284 A 84.942 84.942 0 0 1 258.921 91.674 Q 257.886 91.974 257.031 92.187 Q 256.648 91.133 255.935 88.901 A 252.292 252.292 0 0 1 255.908 88.818 Q 255.405 87.241 254.809 85.236 A 302.976 302.976 0 0 1 254.248 83.325 A 342.374 342.374 0 0 1 253.284 79.932 A 471.138 471.138 0 0 1 252.246 76.147 A 265.245 265.245 0 0 1 251.178 72.058 A 306.783 306.783 0 0 1 250.122 67.749 A 275.519 275.519 0 0 1 248.18 58.912 A 299.404 299.404 0 0 1 248.12 58.618 A 215.114 215.114 0 0 1 246.436 49.219 A 80.822 80.822 0 0 0 253.002 46.632 A 63.564 63.564 0 0 0 257.544 44.385 Q 262.451 41.699 266.162 38.696 Q 269.873 35.693 272.461 32.52 A 43.194 43.194 0 0 0 275.055 29.004 A 33.873 33.873 0 0 0 276.685 26.27 A 31.322 31.322 0 0 0 278.211 22.971 A 24.443 24.443 0 0 0 279.077 20.337 Q 279.834 17.48 279.834 15.088 A 10.034 10.034 0 0 0 279.806 14.318 Q 279.77 13.85 279.688 13.452 A 2.563 2.563 0 0 0 279.49 12.857 A 2.003 2.003 0 0 0 279.102 12.305 A 1.79 1.79 0 0 0 278.531 11.927 Q 278.234 11.8 277.856 11.743 A 4.063 4.063 0 0 0 277.489 11.706 Q 276.874 11.669 276.027 11.776 A 13.842 13.842 0 0 0 275.732 11.816 Q 273.76 12.236 271.445 13.269 A 32.276 32.276 0 0 0 270.679 13.623 A 45.615 45.615 0 0 0 267.847 15.106 A 59.179 59.179 0 0 0 264.868 16.919 Q 261.816 18.896 258.521 21.484 A 145.196 145.196 0 0 0 253.535 25.586 A 161.376 161.376 0 0 0 251.855 27.051 A 256.537 256.537 0 0 1 249.387 34.388 A 309.555 309.555 0 0 1 247.705 39.038 Q 245.361 45.361 242.627 51.636 Q 239.893 57.91 236.89 63.818 A 143.897 143.897 0 0 1 233.098 70.813 A 117.857 117.857 0 0 1 230.786 74.634 A 82.664 82.664 0 0 1 227.686 79.211 A 61.026 61.026 0 0 1 224.585 83.13 Q 222.353 85.713 220.236 87.246 A 14.924 14.924 0 0 1 218.604 88.281 A 8.742 8.742 0 0 1 217.902 88.614 Q 217.412 88.821 216.821 89.014 Q 215.771 89.355 214.209 89.502 Q 213.634 89.55 212.846 89.033 A 5.064 5.064 0 0 1 212.817 89.014 Q 212.012 88.477 211.182 87.646 A 22.28 22.28 0 0 1 210.144 86.533 A 26.543 26.543 0 0 1 209.521 85.791 A 95.321 95.321 0 0 1 208.722 84.79 A 79.32 79.32 0 0 1 207.983 83.838 Q 207.275 82.91 206.812 82.178 A 173.439 173.439 0 0 1 206.624 81.881 Q 206.388 81.506 206.265 81.307 A 12.874 12.874 0 0 1 206.201 81.201 A 3.423 3.423 0 0 1 205.866 80.237 A 4.624 4.624 0 0 1 205.786 79.468 A 7.455 7.455 0 0 1 205.784 79.286 A 7.377 7.377 0 0 1 206.006 77.49 A 48.909 48.909 0 0 1 207.135 74.172 Q 207.834 72.327 208.74 70.312 A 102.469 102.469 0 0 1 211.176 65.287 A 124.691 124.691 0 0 1 212.866 62.134 A 151.304 151.304 0 0 1 216.721 55.588 A 174.286 174.286 0 0 1 218.14 53.345 Q 221.045 48.828 224.39 44.36 Q 227.734 39.893 231.421 35.547 Q 235.107 31.201 239.014 27.246 Q 241.504 19.482 243.115 12.549 Q 244.349 7.24 244.81 2.991 A 49.35 49.35 0 0 0 245.02 0.488 A 18.599 18.599 0 0 1 248.73 2.49 A 29.909 29.909 0 0 1 250.986 4.215 A 25.731 25.731 0 0 1 251.904 5.029 Q 253.32 6.348 254.395 7.666 Q 255.217 8.675 255.782 9.513 A 15.202 15.202 0 0 1 256.104 10.01 Q 256.006 10.84 255.859 11.694 A 22.816 22.816 0 0 1 255.651 12.752 A 28.517 28.517 0 0 1 255.469 13.525 Q 260.4 10.352 265.161 8.569 A 28.497 28.497 0 0 1 270.702 7.084 A 23.745 23.745 0 0 1 274.414 6.787 Q 275.488 6.787 276.758 7.397 A 12.244 12.244 0 0 1 278.414 8.367 A 14.86 14.86 0 0 1 279.272 9.009 Q 280.518 10.01 281.689 11.304 A 23.859 23.859 0 0 1 283.416 13.439 A 21.354 21.354 0 0 1 283.765 13.94 A 18.01 18.01 0 0 1 284.717 15.518 A 14.655 14.655 0 0 1 285.229 16.577 Q 285.67 17.593 285.795 18.443 A 4.64 4.64 0 0 1 285.84 18.896 A 30.741 30.741 0 0 1 284.997 25.918 Z M 213.916 79.492 A 1.498 1.498 0 0 0 214.589 79.306 Q 215.56 78.811 216.943 77.002 A 35.33 35.33 0 0 0 218.307 75.076 Q 218.985 74.056 219.712 72.84 A 85.694 85.694 0 0 0 221.216 70.215 Q 223.251 66.522 225.484 61.784 A 216.056 216.056 0 0 0 226.221 60.205 A 266.059 266.059 0 0 0 230.148 51.251 A 305.252 305.252 0 0 0 231.445 48.096 A 180.422 180.422 0 0 0 225.975 54.926 A 161.597 161.597 0 0 0 224.292 57.178 A 126.492 126.492 0 0 0 221.216 61.554 A 97.939 97.939 0 0 0 218.579 65.698 A 65.917 65.917 0 0 0 216.665 69.102 Q 215.564 71.211 214.795 73.12 Q 213.854 75.456 213.56 77.318 A 10.231 10.231 0 0 0 213.428 78.906 A 1.027 1.027 0 0 0 213.449 79.124 Q 213.529 79.492 213.916 79.492 Z" id="5" />
    <path d="M 330.168 3.307 A 9.964 9.964 0 0 1 330.688 3.491 A 15.939 15.939 0 0 1 333.505 4.918 A 17.772 17.772 0 0 1 333.789 5.103 Q 335.303 6.104 336.694 7.3 A 34.655 34.655 0 0 1 338.329 8.795 A 29.292 29.292 0 0 1 339.209 9.692 A 35.366 35.366 0 0 1 340.238 10.834 Q 340.721 11.396 341.125 11.922 A 21.541 21.541 0 0 1 341.138 11.938 A 38.576 38.576 0 0 1 341.515 12.437 Q 342.041 13.147 342.334 13.623 A 23.064 23.064 0 0 0 343.066 14.795 Q 343.457 15.381 343.799 16.406 A 10.035 10.035 0 0 1 344.022 17.192 Q 344.123 17.606 344.214 18.093 A 25.349 25.349 0 0 1 344.385 19.141 Q 344.618 20.772 344.628 23.425 A 63.942 63.942 0 0 1 344.629 23.682 Q 344.629 30.518 342.847 37.231 A 70.309 70.309 0 0 1 338.013 50.171 A 80.541 80.541 0 0 1 330.933 61.963 A 84.445 84.445 0 0 1 323.491 70.919 A 76.661 76.661 0 0 1 322.363 72.07 A 98.266 98.266 0 0 0 329.053 80.64 A 2063.228 2063.228 0 0 0 336.328 88.916 A 1022.089 1022.089 0 0 0 334.02 89.036 Q 331.973 89.145 329.517 89.282 A 140.491 140.491 0 0 1 324.403 89.471 A 168.303 168.303 0 0 1 321.143 89.502 A 516.197 516.197 0 0 1 319.147 86.871 A 447.359 447.359 0 0 1 317.261 84.351 A 108.321 108.321 0 0 1 313.818 79.443 A 57.815 57.815 0 0 1 308.795 82.788 A 44.246 44.246 0 0 1 303.882 85.303 A 28.926 28.926 0 0 1 300.059 86.662 Q 297.357 87.402 294.922 87.402 A 6.322 6.322 0 0 1 292.857 87.045 A 7.712 7.712 0 0 1 292.163 86.768 A 13.271 13.271 0 0 1 289.992 85.508 A 15.284 15.284 0 0 1 289.453 85.107 A 23.157 23.157 0 0 1 286.963 82.861 A 36.275 36.275 0 0 1 285.392 81.119 A 31.146 31.146 0 0 1 284.839 80.444 A 43.275 43.275 0 0 1 284.062 79.44 Q 283.714 78.976 283.419 78.55 A 24.621 24.621 0 0 1 283.228 78.271 A 31.741 31.741 0 0 1 282.924 77.814 Q 282.507 77.173 282.324 76.807 Q 282.156 76.471 281.942 76.054 A 120.966 120.966 0 0 0 281.738 75.659 Q 281.483 75.167 281.255 74.458 A 13.729 13.729 0 0 1 281.104 73.95 Q 280.811 72.9 280.615 71.362 A 21.527 21.527 0 0 1 280.496 70.109 Q 280.458 69.546 280.439 68.913 A 44.383 44.383 0 0 1 280.42 67.578 Q 280.42 64.209 281.079 60.229 A 40.571 40.571 0 0 1 282.076 55.829 A 54.339 54.339 0 0 1 283.447 51.66 A 58.629 58.629 0 0 1 285.468 46.918 A 79.16 79.16 0 0 1 288.11 41.87 A 73.408 73.408 0 0 1 291.473 36.53 Q 293.359 33.789 295.654 30.908 A 29.756 29.756 0 0 0 295.84 31.119 Q 296.143 31.458 296.582 31.934 A 41.692 41.692 0 0 1 297.158 32.572 Q 297.5 32.957 297.876 33.398 A 239.099 239.099 0 0 0 298.608 34.253 A 285.702 285.702 0 0 0 299.39 35.156 A 160.644 160.644 0 0 1 300.977 37.012 A 36.339 36.339 0 0 1 302.637 28.296 Q 304.004 24.023 306.079 20.239 A 43.834 43.834 0 0 1 310.815 13.257 A 41.94 41.94 0 0 1 314.218 9.612 A 34.693 34.693 0 0 1 316.333 7.764 A 29.441 29.441 0 0 1 319.554 5.499 A 23.55 23.55 0 0 1 322.07 4.175 A 15.893 15.893 0 0 1 324.664 3.257 A 11.659 11.659 0 0 1 327.539 2.881 A 8.532 8.532 0 0 1 330.168 3.307 Z M 311.23 37.012 Q 311.23 44.287 312.549 50.269 A 57.588 57.588 0 0 0 315.368 59.457 A 51.808 51.808 0 0 0 316.211 61.426 A 92.408 92.408 0 0 0 322.607 53.055 A 103.631 103.631 0 0 0 323.73 51.367 A 83.107 83.107 0 0 0 329.98 39.893 A 73.696 73.696 0 0 0 334.253 27.466 A 53.446 53.446 0 0 0 335.84 14.6 A 13.178 13.178 0 0 0 335.785 13.36 Q 335.728 12.756 335.611 12.237 A 6.524 6.524 0 0 0 335.449 11.646 A 7.228 7.228 0 0 0 335.068 10.699 Q 334.786 10.124 334.424 9.692 A 4.021 4.021 0 0 0 333.724 9.029 A 3.283 3.283 0 0 0 332.983 8.618 A 4.429 4.429 0 0 0 331.348 8.301 A 12.987 12.987 0 0 0 325.732 9.546 A 18.657 18.657 0 0 0 321.026 12.75 A 20.946 20.946 0 0 0 320.85 12.915 A 24.802 24.802 0 0 0 317.506 16.834 A 28.264 28.264 0 0 0 316.821 17.871 A 35.783 35.783 0 0 0 313.794 23.877 Q 312.549 27.051 311.89 30.444 A 35.547 35.547 0 0 0 311.272 35.411 A 31.399 31.399 0 0 0 311.23 37.012 Z M 303.56 58.816 A 58.858 58.858 0 0 1 303.345 58.081 A 59.435 59.435 0 0 1 301.541 49.156 A 70.036 70.036 0 0 1 301.172 45.41 A 70.297 70.297 0 0 0 297.607 50.977 Q 295.947 53.857 294.556 56.714 A 92.38 92.38 0 0 0 292.633 60.916 A 81.528 81.528 0 0 0 292.065 62.28 A 88.463 88.463 0 0 0 291.052 64.893 A 67.433 67.433 0 0 0 290.21 67.31 Q 289.601 69.176 289.213 70.694 A 34.879 34.879 0 0 0 289.038 71.411 Q 288.623 73.193 288.623 74.219 A 3.857 3.857 0 0 0 288.916 75.708 Q 289.209 76.416 289.648 76.953 A 4.68 4.68 0 0 0 290.115 77.449 A 3.587 3.587 0 0 0 290.576 77.808 Q 291.064 78.125 291.455 78.125 A 12.132 12.132 0 0 0 294.314 77.758 Q 296.521 77.222 299.072 75.903 A 40.12 40.12 0 0 0 303.385 73.296 Q 305.369 71.93 307.42 70.222 A 66.284 66.284 0 0 0 308.008 69.727 A 63.592 63.592 0 0 1 303.56 58.816 Z" id="6" />
  </g>
</svg>
