
    <svg version="1.1" class="subtitle" xmlns="http://www.w3.org/2000/svg" xmlns:xlink="http://www.w3.org/1999/xlink"
      viewBox="0 0 344.629 94.385" style="enable-background:new 0 0 344.629 94.385;">

      <!-- X -->
      <g>
        <g>
          <defs>
            <clipPath id="Clip_X_1">
              <path
                d="M49.921,93.063c-.184936.051462-.370275.101463-.556.15-.545243.142481-1.092997.275169-1.643.398-.176416.039478-.353087.077812-.53.115-.339274.070917-.678946.139918-1.019.207-.318938.063049-.638278.12405-.958.183-.147627.027218-.295294.054218-.443.081q-.543.098-.943.166c-.042657.007391-.085323.014724-.128.022-1.920964-4.949357-3.736044-9.93916-5.444-14.966-1.715708-5.050226-3.319434-10.137805-4.81-15.259-1.488966-4.791004-.552319-1.210004-2.636-9.668-1.800027-6.706124-3.404043-13.463332-4.81-20.263Q23.926,24.17,22.51,14.209q.928.464,2.319,1.17c.049003.024995.098003.049995.147.075q1.489.757,3.149,1.66c1.113159.605735,2.228164,1.208072,3.345,1.807q1.684.903,3.076,1.684c.222258.124801.444591.249468.667.374q.926.519,1.607.895c.014999.008335.029999.016668.045.025.107278.059433.214611.118767.322.178q.643.353.801.433c.404891,7.006826,1.089101,13.994713,2.051,20.947c1.953,10.473996.96127,4.638998,1.953,12.158c1.143533,6.105469,2.487257,12.171738,4.029,18.189c1.203604,4.684476,2.52368,9.338252,3.959,13.957.499132,1.609527,1.01048,3.21524,1.534,4.817-.526809.175124-1.05798.336843-1.593.485Z" />
            </clipPath>
          </defs>
          <path d="M30.811,14.208998Q28.1095,34.470176,49.98,99.344228" class="path" clip-path="url(#Clip_X_1)"
            fill="none" stroke="#FFFFFF" stroke-width="15" />
        </g>
        <g>
          <defs>
            <clipPath id="Clip_X_2">
              <path
                d="M37.380882,60.277997c-.184936.051462-1.199145,1.001-3.933882,3.882003q-6.299,6.006-13.354,11.768c-3.658031,2.980752-7.402639,5.853652-11.229,8.615-1.334823.96494-2.678209,1.917978-4.03,2.859q-.411-.411-.908-.98c-.10522-.119897-.209556-.240567-.313-.362L2.246,84.448c-.222218-.261867-.443885-.524201-.665-.787-.21025-.249844-.419918-.500178-.629-.751-.095788-.115177-.191788-.230177-.288-.345Q0.256,82.08,0,81.787c5.436567-3.789768,10.650831-7.88886,15.617-12.277.321157-.284703.64116-.570705.96-.858c4.980822-4.476517,9.731582-9.202578,14.234-14.16c4.645906-5.176001,3.780074-4.321001,9.228-11.035c3.365232-4.371044,6.528222-8.894129,9.479-13.555c1.881028-2.977168,3.654178-6.021142,5.316-9.126c1.777459-3.315568,3.439785-6.691584,4.984-10.122Q62.302,5.11,64.014,0c.182007.208271.362015.418281.54.63q.795.945,1.805,2.236c.048392.061954.096725.123954.145.186q1.465,1.88,2.93,3.882c.58731.802209,1.165679,1.610926,1.735,2.426.320162.458254.636838.918934.95,1.382.192462.284577.382801.570585.571.858q.796,1.217,1.236,2.023Q67.09,24.512,59.302,35.01c-5.015329,6.738517-10.398854,13.195008-16.126,19.34-.393208.42303-.787877.844699-1.184,1.265-4.611118,4.589998-1.654986,2.001997-4.611118,4.662997Z" />
            </clipPath>
          </defs>
          <path d="M71.143,3.306998q-31.807122,60.181876-76.762938,86.805" class="path" clip-path="url(#Clip_X_2)"
            fill="none" stroke="#FFFFFF" stroke-width="15" />
        </g>
      </g>

      <!-- iao -->
      <g>
        <defs>
          <clipPath id="Clip_IAO">
            <path
              d="M107.715,53.027l-.098.098c-1.444935.768721-2.83194,1.641698-4.15,2.612q-1.953,1.441-3.467,2.71c-.831781.715301-1.648624,1.447793-2.45,2.197-.275818.258398-.549494.519074-.821.782q-3.304,3.258-4.72,5.698c-.072939.125722-.143617.252742-.212.381-.198008.369214-.386734.743331-.566,1.122q-.801,1.705-.801,2.564c-.001249.103734.008472.20731.029.309q.097.449.513.512c.046715.006463.093843.009471.141.009.168859-.001781.336957-.022919.501-.063q.536-.125,1.233-.498q1.049-.562,2.368-1.514c.436596-.315679.868314-.63805,1.295-.967q.671-.518,1.401-1.108c.069756-.056891.139423-.113891.209-.171.818345-.667211,1.634682-1.33688,2.449-2.009.28255-.233405.564883-.467072.847-.701c1.022897-.82588,2.000956-1.7058,2.93-2.636.425084-.409232.840205-.828688,1.245-1.258.440993-.467156.872416-.943255,1.294-1.428q1.318-1.514,2.246-3.076q0-.049.049-.098.041-.042.119-.012c.009189.00356.0182.007565.027.012.122802.090455.239706.188655.35.294q.345.326.74.83c.044152.056291.087821.112959.131.17.380605.505159.729925,1.033147,1.046,1.581.076056.131358.150396.263703.223.397.235812.430861.457923.869081.666,1.314.117095.251242.228787.504967.335.761q.415,1.001.415,1.538c-.311624.635093-.606393,1.278318-.884,1.929q-.411.965-.715,1.845c-.04591.133248-.090578.26692-.134.401-.145376.445997-.28439.894042-.417,1.344q-.195.667-.346,1.262c-.058158.229233-.113163.459255-.165.69q-.24,1.07-.34,1.903c-.020679.170919-.03735.3423-.05.514-.011531.15694-.022198.313942-.032.471q-.032.508-.039.864c-.001701.067654-.002701.135325-.003.203-.000409.039175.00464.078217.015.116q.037.13.17.164c.035308.008867.071596.013235.108.013.087044-.002077.173442-.015524.257-.04q.397-.108,1.063-.506c.048549-.029313.096884-.058981.145-.089.273233-.169617.54328-.344314.81-.524q.71-.477,1.534-1.087c.458226-.339981.911932-.686011,1.361-1.038.486679-.381214.969043-.767905,1.447-1.16.843987-.691665,1.681359-1.391363,2.512-2.099.114809-.097499.229476-.195166.344-.293.434844-.372581.868181-.746917,1.3-1.123.390357-.340074.779029-.682078,1.166-1.026.172512-.153466.344846-.307133.517-.461q.728-.65,1.167-1.052c.078718.078624.156721.157961.234.238q.319.33.728.782c.045758.05025.091425.100584.137.151.208862.232092.418196.463759.628.695q.299.33.568.624-.805.738-1.83,1.696c-.326137.304831-.651804.610165-.977.916-.56135.52765-1.127036,1.050668-1.697,1.569-.602323.547462-1.208672,1.090477-1.819,1.629-1.272818,1.123374-2.567056,2.222242-3.882,3.296q-2.002,1.636-3.906,2.906c-.60537.404808-1.224046.789354-1.855,1.153-.573359.330856-1.159836.638439-1.758.922q-1.709.805-2.979.805c-.308894-.001364-.617074-.029806-.921-.085q-.422-.075-.877-.215c-.043439-.013329-.086774-.026996-.13-.041q-1.05-.342-1.929-.953-.879-.61-1.465-1.44c-.386592-.540802-.591756-1.190254-.586-1.855.000059-.105674-.000941-.211346-.003-.317q-.006-.285-.021-.636-.019-.421.032-1.034c.011823-.143503.025491-.286848.041-.43q.067-.621.226-1.427c.051165-.257732.105837-.514756.164-.771.07719-.337741.160203-.674124.249-1.009q.255-.969.63-2.189c-.566314.599147-1.150236,1.181402-1.751,1.746-.662811.622735-1.340678,1.229248-2.033,1.819-1.461992,1.247191-2.985569,2.420329-4.565,3.515-1.552518,1.080182-3.157837,2.082422-4.81,3.003-.669234.373392-1.351317.723272-2.045,1.049q-1.031.482-1.986.826c-.145052.052094-.29073.102431-.437.151-.042453.017433-.085477.033442-.129.048q-.13.042-.225.049c-.011984.00077-.023992.001103-.036.001h-.293c-.113534-.001432-.226431-.017224-.336-.047q-.404-.105-.958-.441c-.316017-.193104-.616585-.410422-.899-.65-.240015-.202963-.46964-.417903-.688-.644-.528185-.54698-.979948-1.162898-1.343-1.831-.185583-.333984-.329971-.689245-.43-1.058-.086608-.323906-.130645-.657715-.131-.993.000894-.052793.004231-.105516.01-.158q.037-.366.203-1.34c.026288-.151733.052955-.3034.08-.455q.279-1.584,1.293-3.992c.032419-.077438.065086-.154771.098-.232.322205-.744687.677901-1.474432,1.066-2.187q.906-1.675,2.181-3.574c.668248-.987303,1.395924-1.933049,2.179-2.832q1.195-1.38,2.668-2.792c.333425-.319188.671122-.633883,1.013-.944c1.296709-1.160574,2.66652-2.236783,4.101-3.222.651933-.444776,1.315497-.872259,1.99-1.282.743119-.451636,1.495963-.887072,2.258-1.306c1.596005-.879396,3.28249-1.583495,5.03-2.1q.097,0,.171-.049.065-.044.19.031c.009817.005754.019487.011756.029.018q.586.195,1.392.61t1.611.879c.25673.147376.509168.302107.757.464.224995.146958.444795.301718.659.464q.47.357.694.613c.040411.045525.077823.093626.112.144.004841.009431.00918.019111.013.029q.028.076-.013.117Z" />
            <path
              d="M64.35,81.728q-.572-.115-1.313-.454-1.123-.512-2.148-1.269c-.527729-.386367-1.013396-.827121-1.449-1.315-.106504-.120364-.209546-.243748-.309-.37-.157945-.197536-.297525-.409081-.417-.632q-.316-.598-.316-1.174c.153141-.67004.317498-1.337467.493-2.002q.269-1.023.599-2.16c.074727-.256943.150394-.513611.227-.77q.83-2.783,1.782-5.664c.625507-1.894586,1.293005-3.775049,2.002-5.64.291506-.766494.585174-1.532163.881-2.297q.407-1.051.779-1.994c.081069-.205438.162402-.410772.244-.616.135921-.341505.273924-.682178.414-1.022q.599-1.456,1.076-2.445.539-1.12.761-1.288c.019189-.017138.043379-.027655.069-.03.052562.002046.104648.010783.155.026q.376.103,1.309.609c.461276.250846.913872.517333,1.357.799.375134.238028.744894.484423,1.109.739.599303.416396,1.174246.866801,1.722,1.349.203862.18006.403256.365116.598.555.155636.15075.303176.309639.442.476q.583.705.583,1.257q0,.147-.049.367c-.008602.039091-.017603.078093-.027.117q-.046.188-.119.444-.269.839-.641,1.886c-.118251.332297-.238253.663968-.36.995-.314456.854693-.63346,1.707705-.957,2.559-.111849.294518-.224183.588852-.337.883l-1.367,3.565c-.220354.5739-.436027,1.149586-.647,1.727-.196408.53752-.38775,1.076877-.574,1.618q-.369,1.074-.646,1.963c-.079977.256296-.157647.513307-.233.771-.053255.18109-.103263.363119-.15.546q-.192.76-.192,1.163c-.000409.039175.00464.078217.015.116q.037.13.17.164c.035308.008867.071596.013235.108.013q.409,0,1.13-.368c.163012-.084087.32342-.173129.481-.267.287689-.170471.57143-.347518.851-.531q.466-.305.98-.67c.213063-.15106.424738-.304066.635-.459.602071-.444177,1.197798-.896889,1.787-1.358.375241-.293165.748252-.589173,1.119-.888.921027-.742288,1.831124-1.498036,2.73-2.267.058385-.049939.116719-.099939.175-.15.441815-.379774.883149-.760107,1.324-1.141.397204-.34338.793871-.68738,1.19-1.032.175767-.152936.351767-.305602.528-.458q.51-.44.877-.751c.101-.085728.202334-.171062.304-.256q.44.44,1.05,1.123c.196666.220265.394.439933.592.659.184619.204316.369953.407984.556.611-.292093.291921-.585764.582259-.881.871q-.798.78-1.805,1.741c-.766996.731417-1.547803,1.448213-2.342,2.15-.380406.336303-.763417.669646-1.149,1-1.282119,1.097877-2.58434,2.172059-3.906,3.222-.812898.647573-1.641822,1.274768-2.486,1.881-.47599.341463-.957726.674844-1.445,1-.583715.390486-1.179682.76234-1.787,1.115q-.864.5-1.67.885c-.035617.017105-.071283.034105-.107.051-.323121.153311-.653512.290807-.99.412q-.51.182-.965.274c-.288435.060825-.582231.09265-.877.095-.182504-.001691-.364392-.021454-.543-.059ZM84.201,35.786q-.074.225-.299.765c-.013294.031683-.026627.06335-.04.095q-.218.52-.494,1.156c-.087244.200518-.174911.400852-.263.601-.190731.433779-.389768.863858-.597,1.29-.131909.271367-.266583.541381-.404.81-.180718.354234-.365732.70626-.555,1.056-.176473.325847-.357491.649212-.543.97q-.411.711-.794,1.235c-.07509.102698-.152443.203722-.232.303q-.488.611-.781.611c-.236428-.014718-.47142-.047142-.703-.097q-.359-.075-.763-.205c-.221747-.071403-.441189-.149776-.658-.235-.817776-.320096-1.616432-.687037-2.392-1.099q-1.148-.61-1.954-1.196c-.092512-.067326-.183534-.136676-.273-.208q-.532-.424-.532-.622c.001889-.24759.022952-.494663.063-.739q.12-.765.469-1.769c.017752-.05142.035752-.102754.054-.154.388504-1.085355.845077-2.145125,1.367-3.173.239104-.472514.493573-.937095.763-1.393q.408-.689.824-1.268c.092694-.130046.189066-.257431.289-.382q.47-.582.791-.707c.052338-.021848.108299-.033719.165-.035q.879,0,2.148.562c.849803.376135,1.673625.808424,2.466,1.294.355564.216745.704713.443842,1.047.681q.481.335.889.665c.038517.031108.076851.062442.115.094.098531.081488.195222.165175.29.251q.423.384.529.614c.021548.042252.033822.08862.036.136-.008229.031322-.017568.062341-.028.093Z" />
            <path
              d="M144.141,54.785l.293-.293c.088324.106065.176324.212399.264.319q.292.356.669.822c.120528.148509.240861.297176.361.446.54489.677432,1.081926,1.361145,1.611,2.051.25589.332978.508238.668664.757,1.007.223692.304436.443377.611796.659.922.082723.118607.164393.237945.245.358q.397.595.512.862c-.004539,1.339898-.229198,2.669947-.665,3.937-.029784.087973-.060452.175644-.092.263-.441992,1.215808-.991501,2.389789-1.642,3.508-.124746.215929-.252761.429954-.384.642c1.898015-.1151,3.751616-.622082,5.444-1.489q1.955-1.006,4.042-3c.413937-.396393.816435-.80456,1.207-1.224.07914.079533.157808.159535.236.24q.262.267.594.619c.105956.112061.211623.224394.317.337.113402.120984.226071.242653.338.365q.48.526.81.929c-.649781.683569-1.328048,1.339482-2.033,1.966-.637481.566866-1.303694,1.100571-1.996,1.599-.788497.568022-1.613995,1.082831-2.471,1.541-.483757.257309-.978932.492551-1.484.705-1.294383.546183-2.645289.947296-4.028,1.196-1.386118.245719-2.791273.368197-4.199.366q-1.66,1.758-3.565,3.223c-1.076187.831317-2.208182,1.587763-3.388,2.264-.163373.093378-.327715.18505-.493.275-.873047.476898-1.777847.893213-2.708,1.246-.402801.151978-.810708.29006-1.223.414-.698837.212367-1.412931.370832-2.136.474-.521791.073588-1.048046.111011-1.575.112-.595937-.004131-1.187147-.106157-1.75-.302-.442653-.152281-.870165-.345448-1.277-.577q-1.563-.879-2.832-2.173c-.663593-.671358-1.255453-1.41001-1.766-2.204-.116168-.181708-.22754-.366439-.334-.554q-.568-1.003-.747-1.845c-.053595-.244079-.081414-.493111-.083-.743q0-3.711,1.001-7.373t3.125-6.861c1.318378-1.970091,2.94282-3.717075,4.812-5.175.200322-.157716.403011-.3124.608-.464c1.500635-1.100943,3.134207-2.008109,4.862-2.7.971721-.393066,1.964988-.73061,2.975-1.011.031196-.020294.064365-.037381.099-.051q.109-.044.278-.075c.044833-.008037.089845-.015039.135-.021q.246-.033.437-.043c.057932-.003632.115955-.005633.174-.006q.683,0,1.44.513c.50396.341471.977697.725546,1.416,1.148.209742.201081.41124.410586.604.628.175076.197376.340278.403295.495.617.050846.070505.10052.141848.149.214q.222.331.274.501c.009667.029066.015057.059383.016.09-.02028.047401-.047958.09128-.082.13q-.174.206-.65.481c-.133437.077501-.26418.159549-.392.246q-.545.367-1.317.999c-.269637.221811-.531463.452952-.785.693q-.396.374-.835.829c-.312313.325076-.618697.655797-.919.992-.395962.444861-.776196.903476-1.14,1.375q-.584.753-1.209,1.651c-.297449.427844-.588812.859887-.874,1.296-.618384.922131-1.195292,1.871409-1.729,2.845q-.774,1.421-1.292,2.729c-.205773.517486-.386975,1.044407-.543,1.579q-.785,2.704-.906,4.379c-.014257.192007-.021595.384465-.022.577-.001448.176267.012943.352308.043.526q.171.939,1.031.939c.247745-.005823.492242-.057706.721-.153q.946-.369,2.258-1.629c.575507-.556279,1.126369-1.137503,1.651-1.742q.81-.928,1.646-2.025c.18905-.248211.375725-.498223.56-.75q-.084-.461-.114-.833c-.00309-.039637-.005757-.079306-.008-.119-.007752-.132248-.013753-.264593-.018-.397-.003931-.11996-.005931-.239976-.006-.36.000766-.285029.012775-.569917.036-.854q.053-.668.183-1.465c.066382-.390804.162665-.775935.288-1.152q.181-.553.452-1.157c.113177-.25075.232885-.498501.359-.743q.586-1.318,1.416-2.588c.241602-.395529.494031-.784343.757-1.166.29167-.423656.592745-.840759.903-1.251.650518-.861861,1.369158-1.670123,2.149-2.417Z" />
          </clipPath>
        </defs>
        <path
          d="M81.924,29.223998q-19.959,41.918-17.574,48.266t37.408-24.731q-23.731,19.959-19.834,25.055t27.752-18.048q-8.882,16.659-4.982,18.924t34.609-25.635q-18.355,15.579-13.912,22.351c4.443,6.772,9.95,1.645,13.077-1.993q3.127-3.638,6.899-14.966-7.85,12.834,0,12.472t14.35-6.591"
          class="path" clip-path="url(#Clip_IAO)" fill="none" stroke="#FFFFFF" stroke-width="15" />
      </g>

      <!-- C -->
      <g>
        <defs>
          <clipPath id="Clip_C">
            <path
              d="M206.25,43.994l-8.838-8.496c.500564-.318823.987337-.658797,1.459-1.019q.699-.531,1.432-1.166c.070248-.060715.140248-.121715.21-.183.70648-.624162,1.388333-1.275658,2.044-1.953.418096-.431116.827184-.870878,1.227-1.319c1.049657-1.178118,2.037645-2.409765,2.96-3.69.06362-.088127.126954-.176461.19-.265.921426-1.288124,1.76172-2.632394,2.516-4.025.048732-.090453.097066-.181121.145-.272.604062-1.137419,1.124764-2.317186,1.558-3.53.095884-.270006.186899-.541717.273-.815.262104-.82211.453139-1.665206.571-2.52.074098-.548562.111515-1.101456.112-1.655.000799-.296492-.00687-.592946-.023-.889q-.053-.915-.221-1.552c-.051753-.199651-.114515-.396285-.188-.589q-.112-.29-.247-.523c-.066019-.115312-.140912-.22531-.224-.329q-.415-.513-.952-.708c-.359983-.130423-.740122-.196431-1.123-.195q-2.344,0-5.322,1.977c-.924477.618715-1.81478,1.287026-2.667,2.002q-1.315,1.095-2.687,2.443c-.310602.305063-.617623.613751-.921.926-1.151257,1.189638-2.262541,2.41732-3.332,3.681-1.174348,1.386317-2.310116,2.80486-3.406,4.254-2.048791,2.710024-3.985422,5.503044-5.805,8.372-.289334.454652-.576006.910993-.86,1.369-2.163345,3.493202-4.191185,7.068524-6.079,10.718-1.561775,3.00721-2.996049,6.078938-4.299,9.207-.232034.558749-.459376,1.119435-.682,1.682-.852782,2.147279-1.623671,4.326184-2.311,6.532-.385091,1.239281-.737877,2.48837-1.058,3.746-.347014,1.353422-.630987,2.72223-.851,4.102q-.32,2.043-.38,3.876c-.009219.278238-.013887.556609-.014.835q0,1.465.22,2.417.167.727.449,1.226c.056027.099729.118144.195911.186.288.166242.229844.377532.423441.621.569.134836.079165.278481.142262.428.188q.635.195,1.465.195c.383538-.00436.7647-.060879,1.133-.168q.99-.276,2.174-1.005c.012679-.007646.025346-.015313.038-.023.638857-.398516,1.260109-.824584,1.862-1.277q.949-.71,1.952-1.574c.096027-.082919.191695-.166253.287-.25c1.034352-.908763,2.038561-1.851271,3.011-2.826.467648-.467813.929022-.941855,1.384-1.422c1.080798-1.139094,2.141298-2.297276,3.181-3.474.333755-.377881.665095-.757889.994-1.14.623189-.724197,1.241536-1.452547,1.855-2.185.558731-.666866,1.112082-1.338222,1.66-2.014.246398-.303808.491732-.608477.736-.914q1.034-1.296,1.657-2.138q0,.049,1.196,1.025.823.672,1.841,1.528c.322976.271237.64531.543238.967.816c1.078349.914965,2.152693,1.83464,3.223,2.759q1.611,1.392,2.441,2.271c-.208844.234509-.417511.469176-.626.704q-.931,1.052-2.174,2.462c-.059672.067662-.119338.135329-.179.203-.628659.712537-1.269419,1.414305-1.922,2.105-.707571.749057-1.42598,1.487801-2.155,2.216-1.168443,1.166843-2.363422,2.306808-3.584,3.419-.421957.385001-.846635.767011-1.274,1.146-1.67875,1.493986-3.456825,2.872478-5.322,4.126-1.31698.886828-2.696986,1.676262-4.129,2.362-.457462.217914-.920625.423653-1.389.617q-2.783,1.147-5.42,1.147-1.774,0-3.761-.996c-.097975-.049083-.195316-.09942-.292-.151-.929637-.500072-1.820765-1.068643-2.666-1.701-.54372-.405306-1.071453-.831629-1.582-1.278q-2.099-1.831-3.906-4.052c-.724001-.88676-1.401255-1.810682-2.029-2.768-.352168-.538307-.685046-1.088989-.998-1.651q-1.2-2.24-1.581-4.185c-.05496-.279667-.097668-.561603-.128-.845q-.244-2.295-.244-3.662q0-3.231.793-7.183c.088207-.438817.181881-.876518.281-1.313.470029-2.053615,1.039026-4.083316,1.705-6.082.424621-1.280098.881769-2.549176,1.371-3.806c1.037867-2.658759,2.195722-5.269104,3.47-7.823.442426-.889581.897136-1.772998,1.364-2.65c1.89055-3.552647,3.985395-6.992748,6.274-10.303c2.27274-3.292374,4.768948-6.424747,7.471-9.375q4.028-4.394,8.447-7.666c2.128983-1.58668,4.403866-2.967548,6.794-4.124.767112-.368771,1.546564-.711303,2.337-1.027c3.032323-1.23194,6.272995-1.870162,9.546-1.88.535994.003163,1.06912.078507,1.585.224.444889.124457.878438.286369,1.296.484.750671.353895,1.470213.770366,2.151,1.245.281921.195171.558041.398592.828.61.755589.594902,1.47114,1.238965,2.142,1.928.234856.239716.464902.484098.69.733.718588.792547,1.385305,1.63062,1.996,2.509.135149.195209.267166.392567.396.592.454148.69868.859769,1.427729,1.214,2.182.152069.325699.29282.656564.422.992.163584.420934.299212.852204.406,1.291q.204.852.204,1.614q0,2.744-1.028,6.023c-.046813.14938-.094814.298385-.144.447-.610992,1.830555-1.354285,3.614258-2.224,5.337-.303205.604194-.619614,1.201671-.949,1.792-1.204915,2.149132-2.569765,4.204596-4.083,6.149-.223131.288255-.449143.57427-.678.858-1.557212,1.938421-3.265197,3.750731-5.108,5.42-.255931.230757-.514616.45844-.776.683Z" />
          </clipPath>
        </defs>
        <path
          d="M200.303,41.015998q26.45-25.976,12.509-33.252c-13.941-7.276-34.157,20.019-39.059,30.932s-17.503,32.342999-5.296,41.558999q12.207,9.216,34.1-23.6635"
          class="path" clip-path="url(#Clip_C)" fill="none" stroke="#FFFFFF" stroke-width="15" />
      </g>

      <!-- R -->
      <g>
        <g>
          <defs>
            <clipPath id="Clip_R_2">
              <path
                d="M254.07114,20.91268c-.26229,1.11578-1.39504,5.64612-1.95166,6.13831-.78572,2.45794-1.60848,4.90389-2.468,7.337-.54828,1.55445-1.10896,3.1045-1.682,4.65-1.56267,4.21533-3.25533,8.41467-5.078,12.598-1.82267,4.18267-3.735,8.24333-5.737,12.182-1.19928,2.36617-2.46376,4.69873-3.792,6.995-.74646,1.28816-1.51727,2.56205-2.312,3.821-.98202,1.5598-2.01593,3.08632-3.1,4.577-.97972,1.34813-2.01426,2.65556-3.101,3.919-1.488,1.722-2.93767,3.094-4.349,4.116-.52107.3799-1.06621.72562-1.632,1.035-.22895.12135-.46318.23246-.702.333-.32667.138-.687.27133-1.081.4-.7.22733-1.57067.39-2.612.488-.38333.032-.83767-.12433-1.363-.469-.00969-.0063-.01935-.01263-.029-.019-.805-.537-2.33978-2.09829-2.673-2.481-.56667-.55689-.9853-1.30184-1.26628-2.20895l4.85973-8.03501c.19986,1.01833.48996,1.99689.87203,2.92197.64733-.33,1.41152-1.00299,2.33352-2.20899.47599-.62663.93091-1.26899,1.364-1.926.452-.68.92033-1.42533,1.405-2.236.51674-.86608,1.01815-1.74122,1.504-2.625c1.35667-2.462,2.77933-5.27233,4.268-8.431.24779-.52534.49346-1.05168.737-1.579c1.36373-2.96036,2.67296-5.94553,3.927-8.954.43821-1.04924.87055-2.10093,1.297-3.155-.35033.13103,1.014558-2.047301.673808-1.904511L239.16597,27.33152c.03749-.02859.07499-.0571.11251-.08552c1.66-5.176,3.027-10.075,4.101-14.697.82267-3.53933,1.38767-6.72533,1.695-9.558.09123-.83242.16125-1.66702.21-2.503c1.30854.52457,2.5532,1.19622,3.71,2.002.77889.53895,1.53174,1.1146,2.256,1.725.31243.264.61851.53541.918.814.944.87933,1.77433,1.75833,2.491,2.637.548.67267,1.01033,1.28833,1.387,1.847.11055.16356.2179.32926.322.497-.06533.55333-.147,1.11467-.245,1.684-.06099.35426-.13034.70702-.208,1.058-.05708.2585-.11775.51619-.182.773-1.074,5.616-1.11213,5.08725-1.66234,7.38769v-.00001Z" />
            </clipPath>
          </defs>
          <path d="M253.002,0.487998q-27.681,92.969-40.19,83.35" class="path" clip-path="url(#Clip_R_2)" fill="none"
            stroke="#FFFFFF" stroke-width="15" />
        </g>
        <g>
          <defs>
            <clipPath id="Clip_R_1">
              <path
                d="M284.997,25.918c-.262288,1.115777-.575618,2.218936-.939,3.306-.89353,2.645679-2.091925,5.178382-3.571,7.547-.61013.984739-1.259656,1.944516-1.947,2.877-1.553497,2.095644-3.282032,4.055677-5.167,5.859-1.396287,1.340745-2.857722,2.61195-4.379,3.809-2.282722,1.790121-4.706264,3.392996-7.247,4.793-2.148361,1.187786-4.358123,2.260956-6.62,3.215.974369,2.356122,1.9986,4.691314,3.072,7.004.345707.744319.697051,1.486007,1.054,2.225.93948,1.946303,1.905235,3.879813,2.897,5.8.428367.828283.862377,1.653636,1.302,2.476.667768,1.249271,1.343448,2.494296,2.027,3.735.634219,1.152377,1.276903,2.300074,1.928,3.443q1.88,3.296,3.394,5.884c-.352453.117311-.705121.233978-1.058.35q-.938.309-2.067.675-1.807.586-3.711,1.196-1.904.611-3.736,1.172c-.434948.133501-.870963.263505-1.308.39q-1.035.3-1.89.513-.383-1.054-1.096-3.286c-.009005-.027665-.018005-.055332-.027-.083q-.503-1.577-1.099-3.582c-.189093-.636384-.376094-1.273387-.561-1.911-.327157-1.129337-.648495-2.260352-.964-3.393-.351254-1.26022-.697257-2.521898-1.038-3.785-.366853-1.360142-.722864-2.723185-1.068-4.089-.362381-1.433769-.71439-2.87014-1.056-4.309-.69566-2.934838-1.34308-5.880902-1.942-8.837-.020049-.09799-.040049-.19599-.06-.294-.630808-3.120154-1.19228-6.253926-1.684-9.399c2.22529-.766321,4.416044-1.629477,6.566-2.587c1.543266-.688329,3.058469-1.437925,4.542-2.247q4.907-2.686,8.618-5.689t6.299-6.176c.923428-1.127488,1.789202-2.300989,2.594-3.516.585876-.885287,1.129809-1.797628,1.63-2.734.572098-1.0692,1.081623-2.170721,1.526-3.299.338273-.860907.627404-1.740322.866-2.634q.757-2.857.757-5.249c.000528-.25693-.008812-.513786-.028-.77q-.036-.468-.118-.866c-.041397-.20569-.107895-.405519-.198-.595-.097189-.204616-.228384-.391264-.388-.552-.164234-.161572-.358114-.28992-.571-.378q-.297-.127-.675-.184c-.12171-.017883-.24417-.030229-.367-.037q-.615-.037-1.462.07c-.098474.012275-.196813.02561-.295.04q-1.972.42-4.287,1.453c-.256865.114657-.51222.232667-.766.354-.961037.461093-1.905617.95573-2.832,1.483-1.010594.574938-2.004026,1.179534-2.979,1.813q-3.052,1.977-6.347,4.565c-1.692199,1.330207-3.35461,2.697879-4.986,4.102-.563366.48446-1.123379.972805-1.68,1.465-.785719,2.45794-1.608479,4.903885-2.468,7.337-.548278,1.554453-1.108962,3.104503-1.682,4.65q-2.344,6.323-5.078,12.598-2.734,6.274-5.737,12.182c-1.199282,2.366174-2.463765,4.698732-3.792,6.995-.746463,1.288155-1.517268,2.562051-2.312,3.821-.982017,1.559801-2.015928,3.086321-3.1,4.577-.979722,1.348127-2.014256,2.655556-3.101,3.919q-2.232,2.583-4.349,4.116c-.521068.379896-1.066211.725621-1.632,1.035-.228949.121349-.46318.232459-.702.333q-.49.207-1.081.4-1.05.341-2.612.488-.575.048-1.363-.469c-.009688-.0063-.019355-.012634-.029-.019q-.805-.537-1.635-1.368c-.358574-.359071-.704776-.730287-1.038-1.113-.212164-.243522-.419865-.490897-.623-.742-.268572-.331874-.534911-.665548-.799-1.001-.248741-.315457-.495081-.6328-.739-.952q-.708-.928-1.171-1.66c-.062767-.098936-.125434-.197937-.188-.297q-.236-.375-.359-.574c-.021503-.035231-.042837-.070564-.064-.106-.15921-.302788-.272132-.627732-.335-.964-.048087-.253651-.074848-.510883-.08-.769-.001407-.060656-.002074-.121327-.002-.182.000011-.605509.074572-1.208713.222-1.796.336572-1.119133.713147-2.225844,1.129-3.318q.699-1.845,1.605-3.86c.766199-1.696819,1.5785-3.372441,2.436-5.025.548227-1.059027,1.111618-2.110135,1.69-3.153c1.230011-2.21392,2.515416-4.396608,3.855-6.546.4673-.751257.940314-1.498946,1.419-2.243q2.905-4.517,6.25-8.985q3.344-4.467,7.031-8.813q3.686-4.346,7.593-8.301q2.49-7.764,4.101-14.697q1.234-5.309,1.695-9.558c.091225-.832416.161248-1.66702.21-2.503c1.308544.524571,2.553204,1.196217,3.71,2.002.77889.538953,1.531738,1.114602,2.256,1.725.312426.263998.618513.535409.918.814q1.416,1.319,2.491,2.637.822,1.009,1.387,1.847c.11055.16356.217904.329258.322.497q-.098.83-.245,1.684c-.060989.354256-.130342.707021-.208,1.058-.057076.258499-.117748.516191-.182.773q4.931-3.173,9.692-4.956c1.792349-.680117,3.648752-1.177637,5.541-1.485c1.227651-.196021,2.4688-.295326,3.712-.297q1.074,0,2.344.61c.576529.279507,1.13023.603837,1.656.97.293626.203615.579812.417754.858.642q1.246,1.001,2.417,2.295c.616178.677921,1.192799,1.390768,1.727,2.135.118715.165328.23506.332345.349.501.344055.509409.661805,1.036098.952,1.578.18477.346006.355574.69929.512,1.059q.441,1.016.566,1.866c.022403.150173.037421.301355.045.453-.009915,2.365304-.292787,4.72156-.843,7.022ZM213.916,79.492c.235853-.008123.466449-.071854.673-.186q.971-.495,2.354-2.304c.475989-.626631.930909-1.268989,1.364-1.926q.678-1.02,1.405-2.236c.516741-.866082,1.018152-1.741218,1.504-2.625q2.035-3.693,4.268-8.431c.247788-.525341.493457-1.051678.737-1.579c1.363735-2.960361,2.672956-5.945531,3.927-8.954.438206-1.049243.870546-2.100926,1.297-3.155-1.878282,2.23211-3.702152,4.509446-5.47,6.83-.567519.745772-1.128541,1.496467-1.683,2.252-1.056063,1.436822-2.081626,2.895815-3.076,4.376-.913506,1.359071-1.792782,2.740838-2.637,4.144-.671479,1.115515-1.309759,2.250679-1.914,3.404q-1.101,2.109-1.87,4.018-.941,2.336-1.235,4.198c-.085218.525097-.129351,1.05604-.132,1.588-.00079.073207.00625.14629.021.218q.08.368.467.368Z" />
            </clipPath>
          </defs>
          <path
            d="M212.812,83.837998c-12.509-9.619,27.203-53.956,37.31-62.354s23.765-16.051,31.133-9.546-8.433,33.175-22.334,37.816q-13.901,4.641-7.066,3.301l13.624,40.556"
            class="path" clip-path="url(#Clip_R_1)" fill="none" stroke="#FFFFFF" stroke-width="15" />
        </g>
      </g>

      <!-- Q -->
      <g>
        <g>
          <defs>
            <clipPath id="Clip_Q_2">
              <path
                d="M330.933,61.963c-2.27164,3.15302-4.75821,6.14546-7.442,8.956-.37196.38761-5.431645,5.135-9.673,8.524-1.61496,1.20168-3.29158,2.31821-5.023,3.345-1.58373.93976-3.22459,1.77973-4.913,2.515-1.24095.54193-2.51843.99604-3.823,1.359-1.80133.49333-3.51367.74-5.137.74-.7034-.00329-1.40132-.12395-2.065-.357-.23567-.08106-.46728-.17351-.694-.277-.76185-.35046-1.48877-.77235-2.171-1.26-.18258-.1297-.36229-.2634-.539-.401-.88319-.68751-1.71537-1.43814-2.49-2.246-.54231-.56358-1.06625-1.14455-1.571-1.742-.18748-.22241-.37183-.44743-.553-.675-.26389-.33085-.52292-.66555-.777-1.004-.232-.30933-.44633-.606-.643-.89-.0643-.09256-.12797-.18556-.191-.279-.10265-.15145-.20399-.30379-.304-.457-.278-.42733-.478-.763-.6-1.007-.112-.224-.23933-.475-.382-.753-.06776-.13179-.13576-.26346-.204-.395-.17-.328-.331-.72833-.483-1.201-.0536-.16835-.10394-.33771-.151-.508-.19533-.7-.35833-1.56267-.489-2.588-.05187-.41642-.09155-.83426-.119-1.253-.02533-.37533-.04433-.774-.057-1.196-.01303-.44488-.01936-.88993-.019-1.335c0-2.246.21967-4.69567.659-7.349.25047-1.48402.58331-2.95296.997-4.4.40067-1.40756.85805-2.79836,1.371-4.169.60382-1.60953,1.27814-3.19173,2.021-4.742.81981-1.71382,1.70104-3.39758,2.642-5.048c1.04393-1.82738,2.16597-3.60903,3.363-5.34c1.25733-1.82733,2.651-3.70133,4.181-5.622.06167.07063.12367.14096.186.211.202.226.44933.49767.742.815.19419.21068.3862.42336.576.638.228.25667.46733.532.718.826.24333.28557.48733.57057.732.855.26004.30154.5207.60254.782.903q.5337.61464,5.342228,4.737-3.546398,5.71061-3.560228,5.517c-1.27498,1.79873-2.46463,3.65645-3.565,5.567-1.10667,1.92-2.12367,3.83233-3.051,5.737-.67594,1.38441-1.31714,2.78552-1.923,4.202-.19345.45294-.38279.90763-.568,1.364-.35144.8656-.68915,1.73671-1.013,2.613-.29593.80027-.57665,1.60608-.842,2.417-.406,1.244-.73833,2.372-.997,3.384-.06086.23838-.1192.47739-.175.717-.27667,1.188-.415,2.124-.415,2.808-.0019.51084.09769,1.01697.293,1.489s.43933.887.732,1.245c.14341.17646.29949.34223.467.496.14365.132.29783.25207.461.359.32533.21133.61833.317.879.317.9642-.00828,1.92397-.13149,2.859-.367c1.47133-.35733,3.05733-.97567,4.758-1.855c1.49088-.77776,2.93139-1.64847,4.313-2.607c1.32267-.91067,2.66767-1.93533,4.035-3.074.19696-.16386.39296-.32886.588-.495c2.417607-2.149,5.81-5.415035,8.203-8.301c2.28945-2.66644,4.42492-5.46131,6.396-8.371.37983-.55899.75418-1.12168,1.123-1.688c2.38122-3.65472,4.47101-7.49124,6.25-11.474.09613-.215.19122-.43043.28526-.64629l7.2138,11.99483c-1.89929,3.73825-4.08788,7.32302-6.54606,10.72146Z" />
            </clipPath>
          </defs>
          <path d="M300.059,33.397998q-23.229,36.964-11.949,46.839c11.28,9.875,38.061999-15.539,46.142999-36.096"
            class="path" clip-path="url(#Clip_Q_2)" fill="none" stroke="#FFFFFF" stroke-width="15" />
        </g>
        <g>
          <defs>
            <clipPath id="Clip_Q_1">
              <path
                d="M330.168,3.307c.175.05652.3484.11788.52.184.98392.38125,1.92755.85926,2.817,1.427.09525.06076.18992.12243.284.185c1.00933.66733,1.97767,1.39967,2.905,2.197.56079.48078,1.10607.97937,1.635,1.495.29971.29267.59311.59174.88.897.35123.37317.69431.75392,1.029,1.142.322.37467.61767.73733.887,1.088.00434.00533.00867.01066.013.016.12701.16531.25268.33165.377.499.35067.47333.62367.86867.819,1.186.23224.39789.47635.78873.732,1.172.26067.39067.505.92767.733,1.611.08497.25886.15937.52108.223.786.06733.276.13133.57633.192.901.06431.3481.12132.69751.171,1.048.15533,1.08733.23633,2.51533.243,4.284.00051.08567.00084.17133.001.257c0,4.55733-.594,9.07367-1.782,13.549-1.18268,4.46155-2.80183,8.79579-4.834,12.94-2.01944,4.12536-4.38808,8.0704-7.08,11.792-.77686,1.07828-1.57886,2.13778-2.40529,3.17764l-9.72016-6.87786c1.32641-1.69088,2.59369-3.42785,3.79945-5.20778.37983-.55899.75418-1.12168,1.123-1.688c2.38122-3.65472,4.47101-7.49124,6.25-11.474c1.79155-4.00682,3.22157-8.16569,4.273-12.427c1.04908-4.20839,1.582-8.52883,1.587-12.866.00115-.41397-.0172-.82776-.055-1.24-.038-.40267-.096-.777-.174-1.123-.04471-.19943-.09877-.39665-.162-.591-.10452-.32425-.23184-.64071-.381-.947-.188-.38333-.40267-.719-.644-1.007-.2059-.24827-.44092-.47087-.7-.663-.22821-.16843-.47728-.30659-.741-.411-.52005-.20811-1.07486-.31568-1.635-.317-1.94153-.01001-3.8606.41542-5.616,1.245-1.72334.82096-3.31048,1.90154-4.706,3.204-.05898.05466-.11765.10966-.176.165-1.24769,1.18671-2.3684,2.50013-3.344,3.919-.23591.3406-.46429.68635-.685,1.037-1.19533,1.90253-2.2088,3.91341-3.027,6.006-.83,2.116-1.46467,4.305-1.904,6.567-.32245,1.63909-.52897,3.29887-.618,4.967-.02761.53322-.04161,1.06706-.042,1.601c0,4.85.43967,9.269,1.319,13.257.68202,3.13586,1.62497,6.20923,2.819,9.188.2674.66207,4.186,8.616724,6.995,12.61301c2.07014,2.97794,4.30356,5.83898,6.69,8.57c2.41763,2.76514,4.84264,5.52381,7.275,8.276-.76938.03913-1.53871.07913-2.308.12-1.36467.07267-2.86567.15467-4.503.246-1.70338.09404-3.40833.15705-5.114.189-1.08654.02086-2.17326.03119-3.26.031-.66814-.87487-1.33347-1.75187-1.996-2.631-.63162-.83779-1.26029-1.67779-1.886-2.52-1.19273-1.60392-2.34084-3.24055-3.443-4.908-2.588-4.092837-6.00504-9.54986-5.81-9.716-1.81714-3.49151-3.3062-7.14418-4.448-10.911-.07326-.24453-.14493-.48954-.215-.735-.82867-2.92449-1.43177-5.90825-1.804-8.925-.15654-1.24513-.27958-2.49425-.369-3.746-.303683-3.540011-.36542-5.51701-.195-8.398.19524-2.96223.75272-5.88938,1.66-8.716.91133-2.84867,2.05867-5.53433,3.442-8.057c1.3505-2.4742,2.93651-4.81236,4.736-6.982c1.06103-1.28142,2.19738-2.49857,3.403-3.645.67977-.6443,1.38534-1.2608,2.115-1.848c1.02192-.82603,2.09799-1.58273,3.221-2.265.81124-.4916,1.65143-.93374,2.516-1.324.8365-.38042,1.70442-.68757,2.594-.918.93896-.24447,1.90476-.37078,2.875-.376.89323.00351,1.78037.14726,2.629.426v-.00001Z" />
            </clipPath>
          </defs>
          <path
            d="M332.389988,48.716336c.558807-1.270702,1.269657-3.065922,1.863011-4.575338c8.081-20.557,7.31-35.055001-1.27-38.353001s-28.958,9.325-25.563,36.082q3.395,26.757,25.563,57.474229"
            class="path" clip-path="url(#Clip_Q_1)" fill="none" stroke="#FFFFFF" stroke-width="15" />
        </g>
      </g>
    </svg>
